<svg height="476pt" viewBox="0 -17 476.00591 476" width="476pt" xmlns="http://www.w3.org/2000/svg" xmlns:xlink="http://www.w3.org/1999/xlink"><linearGradient id="a" gradientUnits="userSpaceOnUse" x1="238.002682" x2="238.002682" y1="-21.457371" y2="461.739629"><stop offset="0" stop-color="#00efd1"/><stop offset="1" stop-color="#00acea"/></linearGradient><path d="m244.640625 2.527344c-3.789063-3.367188-9.496094-3.367188-13.28125 0l-228 202.46875c-2.507813 2.222656-3.730469 5.554687-3.2617188 8.875.4687498 3.316406 2.5703128 6.179687 5.5937498 7.625l45.273438 21.613281c3.585937 1.734375 7.867187 1.121094 10.820312-1.554687l13.214844-11.886719v201.769531c.105469 5.628906 4.640625 10.171875 10.273438 10.28125h102.726562c5.574219-.132812 10.019531-4.703125 10-10.28125v-69.71875h80v69.71875c-.023438 5.578125 4.421875 10.148438 10 10.28125h102.726562c5.628907-.109375 10.167969-4.652344 10.273438-10.28125v-201.769531l13.214844 11.886719c2.964844 2.675781 7.253906 3.289062 10.851562 1.554687l45.257813-21.613281c3.019531-1.445313 5.117187-4.308594 5.585937-7.628906.464844-3.316407-.761718-6.648438-3.265625-8.871094zm136.359375 419.191406h-83v-70.28125c-.011719-2.625-1.078125-5.132812-2.960938-6.960938-1.878906-1.828124-4.417968-2.820312-7.039062-2.757812h-100c-2.625-.0625-5.160156.929688-7.042969 2.757812-1.878906 1.828126-2.945312 4.335938-2.957031 6.960938v70.28125h-83v-209.851562l143-127.046876 143 127.046876zm41.414062-199.519531-177.765624-158.242188c-3.792969-3.375-9.511719-3.375-13.300782 0l-177.761718 158.242188-25.675782-12.257813 210.089844-186.566406 210.089844 186.566406zm0 0" fill="url(#a)"/></svg>