<?xml version="1.0"?>
<svg xmlns="http://www.w3.org/2000/svg" id="Layer_1" enable-background="new 0 0 512 512" height="512px" viewBox="0 0 512 512" width="512px" class=""><g><g><path d="m179.716 492h-60.716c-55.229 0-100-44.772-100-100v-272c0-55.229 44.771-100 100-100h60.716c-55.072 0-99.716 44.753-99.716 99.959v272.083c0 55.205 44.644 99.958 99.716 99.958zm144.284-115c0-51.123 33.362-94.446 79.5-109.407-11.182-3.625-23.11-5.593-35.5-5.593-63.513 0-115 51.487-115 115s51.487 115 115 115c12.39 0 24.318-1.968 35.5-5.593-46.138-14.961-79.5-58.284-79.5-109.407z" fill="#cee1f2" data-original="#CEE1F2" class="" style="fill:#8AEFE6" data-old_color="#cee1f2"/><path d="m217 512h-97c-66.168 0-120-53.832-120-120v-272c0-66.168 53.832-120 120-120h184c66.168 0 120 53.832 120 120v65c0 11.046-8.954 20-20 20s-20-8.954-20-20v-65c0-44.112-35.888-80-80-80h-184c-44.112 0-80 35.888-80 80v272c0 44.112 35.888 80 80 80h97c11.046 0 20 8.954 20 20s-8.954 20-20 20zm103-414c0-11.046-8.954-20-20-20s-20 8.954-20 20c0 16.542-13.458 30-30 30h-76c-16.542 0-30-13.458-30-30 0-11.046-8.954-20-20-20s-20 8.954-20 20c0 38.598 31.402 70 70 70h76c38.598 0 70-31.402 70-70zm192 279c0-74.439-60.561-135-135-135s-135 60.561-135 135 60.561 135 135 135 135-60.561 135-135zm-40 0c0 52.383-42.617 95-95 95s-95-42.617-95-95 42.617-95 95-95 95 42.617 95 95z" fill="#1428bf" data-original="#1428BF" class="active-path" data-old_color="#1428bf" style="fill:#0ACCE3"/><path d="m410.987 397h-33.987c-11.046 0-20-8.954-20-20v-41c0-11.046 8.954-20 20-20s20 8.954 20 20v21h13.987c11.046 0 20 8.954 20 20s-8.954 20-20 20z" fill="#ff5cf0" data-original="#FF5CF0" class="" style="fill:#FB5252" data-old_color="#ff5cf0"/></g></g> </svg>
