<?xml version="1.0"?>
<svg xmlns="http://www.w3.org/2000/svg" xmlns:xlink="http://www.w3.org/1999/xlink" version="1.1" id="Capa_1" x="0px" y="0px" viewBox="0 0 468.293 468.293" style="enable-background:new 0 0 468.293 468.293;" xml:space="preserve" width="512px" height="512px" class=""><g><path style="fill:#0BD7EF" d="M341.899,383.574c-3.922-4.765-8.021-9.428-12.853-13.344  c-54.267-43.985-117.283-32.444-154.594-21.259c-32.249,9.668-69.512-9.279-72.823-41.556c-1.336-13.022-5.324-21.334-5.324-21.334  l-5.436,15.817c0,0-5.349,9.293-5.52,23.159c-0.424,34.368,32.76,59.745,67.132,53.348c39.767-7.401,112.488-11.433,163.167,41.232  c4.513,4.689,8.182,10.078,11.656,15.554c6.185,9.75,25.022,29.677,76.755,33.102v-61.863  C354.109,408.736,348.881,392.057,341.899,383.574z" data-original="#3A556A" class="active-path" data-old_color="#3A556A"/><path style="fill:#E56353;" d="M192.7,96.35c0,53.213-96.35,205.547-96.35,205.547S0,149.563,0,96.35S43.137,0,96.35,0  S192.7,43.137,192.7,96.35z" data-original="#E56353" class=""/><circle style="fill:#EBF0F3" cx="96.35" cy="96.35" r="51.387" data-original="#EBF0F3" class=""/><path style="fill:#E56353;" d="M468.293,331.261c0,35.475-64.233,137.031-64.233,137.031s-64.233-101.556-64.233-137.031  s28.758-64.233,64.233-64.233S468.293,295.786,468.293,331.261z" data-original="#E56353" class=""/><circle style="fill:#EBF0F3" cx="404.043" cy="331.239" r="34.26" data-original="#EBF0F3" class=""/></g> </svg>
