<?xml version="1.0"?>
<svg xmlns="http://www.w3.org/2000/svg" xmlns:xlink="http://www.w3.org/1999/xlink" version="1.1" id="Capa_1" x="0px" y="0px" viewBox="0 0 468.293 468.293" style="enable-background:new 0 0 468.293 468.293;" xml:space="preserve" width="512px" height="512px"><g><path style="fill:#D5D6DB" d="M131.573,468.293c-2.658,0-5.238-1.374-6.672-3.833c-2.146-3.683-0.898-8.402,2.785-10.547  l186.417-108.578L126.685,192.307c-3.297-2.694-3.791-7.552-1.091-10.855c2.694-3.285,7.546-3.797,10.855-1.091l196.037,160.067  c1.959,1.597,3.008,4.056,2.809,6.582c-0.199,2.519-1.621,4.785-3.809,6.057L135.448,467.244  C134.231,467.955,132.893,468.293,131.573,468.293z" data-original="#D5D6DB" class="active-path"/><path style="fill:#04458F" d="M194.442,62.878c0,30.518-48.561,104.519-60.331,122.007c-1.222,1.815-3.872,1.815-5.094,0  c-11.77-17.489-60.331-91.489-60.331-122.007C68.686,28.152,96.837,0,131.564,0S194.442,28.152,194.442,62.878z" data-original="#27A2DB" class="" data-old_color="#27A2DB"/><circle style="fill:#EBF0F3;" cx="131.565" cy="62.882" r="31.469" data-original="#EBF0F3"/><path style="fill:#04458F" d="M194.442,337.323c0,30.518-48.561,104.519-60.331,122.008c-1.222,1.815-3.872,1.815-5.094,0  c-11.77-17.489-60.331-91.49-60.331-122.008c0-34.727,28.152-62.878,62.878-62.878S194.442,302.597,194.442,337.323z" data-original="#3A556A" class="" data-old_color="#3A556A"/><circle style="fill:#EBF0F3;" cx="131.565" cy="337.296" r="31.469" data-original="#EBF0F3"/><path style="fill:#04458F" d="M399.607,191.243c0,38.504-62.176,132.683-75.629,152.609c-1.225,1.814-3.869,1.814-5.093,0  c-13.452-19.926-75.629-114.105-75.629-152.609c0-43.175,35-78.175,78.175-78.175S399.607,148.068,399.607,191.243z" data-original="#3EA69B" class="" data-old_color="#3EA69B"/><circle style="fill:#EBF0F3;" cx="321.436" cy="191.251" r="39.087" data-original="#EBF0F3"/></g> </svg>
