<?xml version="1.0"?>
<svg xmlns="http://www.w3.org/2000/svg" xmlns:xlink="http://www.w3.org/1999/xlink" version="1.1" id="Capa_1" x="0px" y="0px" viewBox="0 0 511.999 511.999" style="enable-background:new 0 0 511.999 511.999;" xml:space="preserve" width="512px" height="512px"><g><g>
	<g>
		<path d="M492.45,0.822c-0.242,0.077-0.498-0.029-0.738,0.06l-480,180c-5.259,1.978-8.979,6.738-9.624,12.334    s1.89,11.074,6.577,14.194l105.233,70.146l38.498,160.86c0.101,0.423,0.361,0.76,0.496,1.166    c3.46,10.553,16.749,13.903,24.699,5.953l75.306-75.306l115.768,77.181c8.388,5.625,19.952,1.426,22.749-8.364l120-420    C514.636,7.742,504.025-2.894,492.45,0.822z M188.885,305.936c-2.484,2.516-3.232,4.555-4.103,7.727    c-0.011,0.059-0.037,0.114-0.048,0.172l-16.738,60.861l-23.848-99.653l232.325-159.302L188.885,305.936z" data-original="#000000" class="active-path" data-old_color="#000000" fill="#04458F"/>
	</g>
</g><g>
	<g>
		<path d="M100.605,411.325c-5.859-5.859-15.352-5.86-21.211,0l-75,75c-5.859,5.859-5.859,15.352,0,21.211    c5.86,5.86,15.351,5.86,21.211,0l75-75C106.464,426.677,106.464,417.184,100.605,411.325z" data-original="#000000" class="active-path" data-old_color="#000000" fill="#04458F"/>
	</g>
</g><g>
	<g>
		<path d="M100.605,321.325c-5.859-5.859-15.352-5.86-21.211,0l-75,75c-5.859,5.859-5.859,15.352,0,21.211    c5.86,5.86,15.351,5.86,21.211,0l75-75C106.464,336.677,106.464,327.184,100.605,321.325z" data-original="#000000" class="active-path" data-old_color="#000000" fill="#04458F"/>
	</g>
</g></g> </svg>
