<?xml version="1.0" encoding="iso-8859-1"?>
<!-- Generator: Adobe Illustrator 18.0.0, SVG Export Plug-In . SVG Version: 6.00 Build 0)  -->
<!DOCTYPE svg PUBLIC "-//W3C//DTD SVG 1.1//EN" "http://www.w3.org/Graphics/SVG/1.1/DTD/svg11.dtd">
<svg version="1.1" id="Capa_1" xmlns="http://www.w3.org/2000/svg" xmlns:xlink="http://www.w3.org/1999/xlink" x="0px" y="0px"
	 viewBox="0 0 423.295 423.295" style="enable-background:new 0 0 423.295 423.295;" xml:space="preserve">
<g>
	<g>
		<path style="fill:none;" d="M255.568,47.811c0-9.383-3.566-15.67-11.224-19.781c-6.087-3.268-12.577-3.932-13.778-4.029h-37.863
			c-1.047,0.086-7.605,0.729-13.754,4.029c-7.656,4.111-11.223,10.398-11.223,19.781c0,0.098-0.013,0.191-0.015,0.287h87.871
			C255.58,48.002,255.568,47.908,255.568,47.811z"/>
		<path style="fill:none;" d="M118.058,399.295h187.18l43.992-256.24H74.064L118.058,399.295z M258.441,346.305l15-168.98
			c0.587-6.602,6.414-11.484,13.015-10.893c6.602,0.586,11.478,6.412,10.892,13.014l-15,168.981
			c-0.554,6.24-5.791,10.939-11.94,10.939c-0.355,0-0.714-0.016-1.074-0.047C262.732,358.732,257.855,352.904,258.441,346.305z
			 M199.647,178.385c0-6.627,5.372-12,12-12c6.627,0,12,5.373,12,12v168.98c0,6.627-5.373,12-12,12c-6.628,0-12-5.373-12-12V178.385
			z M136.839,166.432c6.606-0.596,12.429,4.291,13.015,10.893l15,168.98c0.586,6.6-4.291,12.428-10.893,13.014
			c-0.36,0.031-0.72,0.047-1.074,0.047c-6.148,0-11.386-4.699-11.939-10.939l-15-168.981
			C125.361,172.844,130.237,167.018,136.839,166.432z"/>
		<path style="fill:#73D0F4;" d="M342.397,80.813c-14.493-7.396-29.36-8.596-31.148-8.715H112.048
			c-1.804,0.121-17.06,1.342-31.772,9.035c-15.783,8.256-25.207,20.98-28.126,37.922h318.995
			C368.189,101.891,358.556,89.059,342.397,80.813z"/>
		<path style="fill:#3D6889;" d="M353.307,59.436c-20.234-10.326-40.37-11.291-41.217-11.326c-0.17-0.008-0.34-0.012-0.51-0.012
			h-32.026c0.002-0.096,0.015-0.189,0.015-0.287c0-18.545-8.826-33.262-24.852-41.439c-11.162-5.695-22.047-6.309-23.252-6.359
			C231.296,0.004,231.126,0,230.956,0h-38.617c-0.17,0-0.34,0.004-0.51,0.012c-1.204,0.051-12.09,0.664-23.251,6.359
			c-16.026,8.178-24.852,22.895-24.852,41.439c0,0.098,0.012,0.191,0.015,0.287h-32.026c-0.17,0-0.34,0.004-0.51,0.012
			c-0.848,0.035-20.983,1-41.218,11.326C50.454,69.402,27.17,89.92,27.17,131.055c0,6.627,5.372,12,12,12h10.544l46.401,270.269
			c0.989,5.76,5.983,9.971,11.827,9.971h207.41c5.844,0,10.838-4.211,11.827-9.971l46.401-270.269h10.544c6.627,0,12-5.373,12-12
			C396.125,89.92,372.84,69.402,353.307,59.436z M52.149,119.055c2.919-16.941,12.343-29.666,28.126-37.922
			c14.713-7.693,29.969-8.914,31.772-9.035h199.201c1.788,0.119,16.655,1.318,31.148,8.715
			c16.158,8.246,25.792,21.078,28.747,38.242H52.149z M167.727,47.811c0-9.383,3.566-15.67,11.223-19.781
			c6.148-3.301,12.707-3.943,13.754-4.029h37.863c1.201,0.098,7.691,0.762,13.778,4.029c7.657,4.111,11.224,10.398,11.224,19.781
			c0,0.098,0.012,0.191,0.015,0.287h-87.871C167.714,48.002,167.727,47.908,167.727,47.811z M305.237,399.295h-187.18
			l-43.993-256.24h275.165L305.237,399.295z"/>
		<path style="fill:#3D6889;" d="M211.647,359.365c6.627,0,12-5.373,12-12v-168.98c0-6.627-5.373-12-12-12c-6.628,0-12,5.373-12,12
			v168.98C199.647,353.992,205.02,359.365,211.647,359.365z"/>
		<path style="fill:#3D6889;" d="M140.947,348.426c0.554,6.24,5.791,10.939,11.939,10.939c0.355,0,0.714-0.016,1.074-0.047
			c6.602-0.586,11.479-6.414,10.893-13.014l-15-168.98c-0.586-6.602-6.408-11.488-13.015-10.893
			c-6.602,0.586-11.478,6.412-10.892,13.014L140.947,348.426z"/>
		<path style="fill:#3D6889;" d="M269.334,359.318c0.36,0.031,0.719,0.047,1.074,0.047c6.148,0,11.386-4.699,11.94-10.939
			l15-168.981c0.586-6.602-4.29-12.428-10.892-13.014c-6.601-0.592-12.428,4.291-13.015,10.893l-15,168.98
			C257.855,352.904,262.732,358.732,269.334,359.318z"/>
	</g>
</g>
<g>
</g>
<g>
</g>
<g>
</g>
<g>
</g>
<g>
</g>
<g>
</g>
<g>
</g>
<g>
</g>
<g>
</g>
<g>
</g>
<g>
</g>
<g>
</g>
<g>
</g>
<g>
</g>
<g>
</g>
</svg>
