<?xml version="1.0" encoding="UTF-8" standalone="no"?>
<svg
   xmlns:dc="http://purl.org/dc/elements/1.1/"
   xmlns:cc="http://creativecommons.org/ns#"
   xmlns:rdf="http://www.w3.org/1999/02/22-rdf-syntax-ns#"
   xmlns:svg="http://www.w3.org/2000/svg"
   xmlns="http://www.w3.org/2000/svg"
   xmlns:sodipodi="http://sodipodi.sourceforge.net/DTD/sodipodi-0.dtd"
   xmlns:inkscape="http://www.inkscape.org/namespaces/inkscape"
   version="1.0"
   width="860.000000pt"
   height="498.000000pt"
   viewBox="0 0 860.000000 498.000000"
   preserveAspectRatio="xMidYMid meet"
   id="svg16"
   sodipodi:docname="firends.svg"
   inkscape:version="0.92.4 (5da689c313, 2019-01-14)">
  <metadata
     id="metadata22">
    <rdf:RDF>
      <cc:Work
         rdf:about="">
        <dc:format>image/svg+xml</dc:format>
        <dc:type
           rdf:resource="http://purl.org/dc/dcmitype/StillImage" />
        <dc:title></dc:title>
      </cc:Work>
    </rdf:RDF>
  </metadata>
  <defs
     id="defs20" />
  <sodipodi:namedview
     pagecolor="#ffffff"
     bordercolor="#666666"
     borderopacity="1"
     objecttolerance="10"
     gridtolerance="10"
     guidetolerance="10"
     inkscape:pageopacity="0"
     inkscape:pageshadow="2"
     inkscape:window-width="1920"
     inkscape:window-height="1017"
     id="namedview18"
     showgrid="false"
     inkscape:zoom="0.71084337"
     inkscape:cx="146.09421"
     inkscape:cy="367.88051"
     inkscape:window-x="-8"
     inkscape:window-y="-8"
     inkscape:window-maximized="1"
     inkscape:current-layer="svg16" />
  <g
     transform="translate(0.000000,498.000000) scale(0.100000,-0.100000)"
     fill="#000000"
     stroke="none"
     id="g14">
    <path
       d="M4157 4554 c-166 -30 -295 -100 -422 -228 -157 -158 -227 -327 -228 -551 0 -139 16 -219 68 -332 105 -228 292 -382 546 -450 97 -25 271 -23 379 6 243 65 448 245 541 476 121 304 49 637 -188 866 -190 184 -437 260 -696 213z"
       id="path2" />
    <path
       d="M1786 4124 c-137 -27 -292 -122 -378 -231 -291 -372 -131 -903 317 -1050 68 -22 98 -26 200 -26 106 -1 130 3 204 28 399 136 575 587 374 955 -55 100 -178 216 -283 267 -140 69 -283 87 -434 57z"
       id="path4" />
    <path
       d="M6561 4130 c-208 -44 -376 -169 -470 -350 -50 -96 -73 -190 -74 -300 -1 -115 16 -188 69 -298 107 -222 347 -372 595 -372 183 0 399 104 514 248 105 133 150 272 143 447 -8 180 -64 310 -193 440 -75 75 -181 138 -285 169 -66 20 -237 29 -299 16z"
       id="path6" />
    <path
       d="M3535 2696 c-67 -17 -116 -39 -169 -76 -52 -35 -69 -38 -416 -69 -364 -33 -622 -43 -831 -31 -260 15 -595 47 -919 90 -131 17 -190 13 -248 -16 -67 -33 -128 -103 -147 -167 -95 -320 234 -450 1203 -476 309 -8 782 1 967 18 61 6 120 11 133 11 l22 0 0 -594 c0 -359 4 -615 10 -647 36 -192 190 -346 396 -399 73 -19 113 -20 763 -20 762 0 756 0 883 67 122 64 217 191 247 331 7 36 11 250 11 659 l0 606 93 -7 c354 -25 467 -28 887 -23 462 5 597 13 842 48 241 34 424 101 491 180 84 98 71 264 -29 362 -84 83 -136 94 -342 67 -421 -53 -870 -90 -1097 -90 -164 0 -380 12 -665 35 -281 24 -338 33 -374 60 -47 35 -106 62 -173 79 -53 14 -155 16 -774 15 -537 0 -726 -4 -764 -13z"
       id="path8" />
    <path
       d="M580 1383 c-237 -574 -264 -645 -268 -705 -6 -98 17 -159 87 -229 66 -66 124 -89 222 -89 56 0 77 5 130 33 83 42 121 94 183 247 26 66 50 120 51 120 2 0 13 -21 26 -47 50 -104 186 -206 307 -232 36 -7 235 -11 610 -11 604 0 615 1 724 56 66 33 149 116 182 182 54 107 56 126 56 652 l0 485 -557 0 c-606 0 -769 9 -1071 60 -144 25 -331 74 -384 101 -15 8 -29 14 -31 14 -2 0 -122 -287 -267 -637z"
       id="path10" />
    <path
       d="M7730 2010 c-25 -17 -200 -68 -302 -89 -289 -60 -539 -76 -1171 -76 l-548 0 3 -505 c4 -568 2 -554 80 -670 47 -71 130 -137 216 -172 57 -23 57 -23 642 -26 379 -2 601 1 633 8 121 26 255 127 309 234 l25 48 42 -103 c24 -57 52 -121 62 -141 28 -55 85 -107 147 -136 47 -21 64 -24 136 -20 93 5 140 25 199 85 60 59 80 106 85 199 l4 81 -262 634 c-144 349 -264 640 -267 647 -6 14 -13 15 -33 2z"
       id="path12" />
  </g>
  <path
     style="fill:#67e3c0;fill-opacity:1;stroke:#67e3c0;stroke-width:5.95900003;stroke-miterlimit:4;stroke-dasharray:none;stroke-dashoffset:0;stroke-opacity:1"
     d="m 241.02091,287.16556 c -28.04554,-4.43696 -55.49129,-27.10968 -66.30173,-54.77132 -4.65308,-11.90626 -6.01304,-20.71847 -5.4294,-35.18136 0.6389,-15.83243 2.79193,-24.07295 9.78779,-37.46174 15.13135,-28.95864 44.54997,-46.72611 77.36711,-46.72611 23.91915,0 44.90184,8.97376 62.74441,26.83418 12.72422,12.73695 19.94898,26.19627 23.46801,43.71958 2.49038,12.40103 1.60442,30.51456 -2.04708,41.85225 -7.87944,24.4653 -23.14692,42.59913 -45.19532,53.6804 -13.19706,6.63271 -19.69149,8.20208 -35.38145,8.54996 -7.65953,0.16984 -16.21508,-0.0533 -19.01234,-0.49584 z"
     id="path829"
     inkscape:connector-curvature="0"
     transform="scale(0.75000001)" />
  <path
     style="fill:#67e3c0;fill-opacity:1;stroke:#67e3c0;stroke-width:6.05900003;stroke-miterlimit:4;stroke-dasharray:none;stroke-dashoffset:0;stroke-opacity:1"
     d="m 873.59824,286.95879 c -25.84955,-5.65854 -48.57646,-22.77301 -60.34469,-45.44248 -8.47459,-16.32486 -9.7935,-21.91052 -9.73511,-41.22887 0.0461,-15.26312 0.24594,-17.00577 2.85151,-24.86859 5.23811,-15.80704 11.8554,-26.47308 23.45156,-37.80025 9.39252,-9.17465 20.64591,-16.0359 34.06557,-20.76995 10.16847,-3.58713 10.26904,-3.60064 25.62706,-3.44138 18.08523,0.18753 26.34227,1.94684 39.12972,8.33729 27.05113,13.51862 44.67675,37.55629 48.47412,66.10858 2.27812,17.12913 -0.0749,34.73845 -6.52942,48.86368 -8.96821,19.62635 -23.03379,33.54749 -43.65334,43.2051 -17.69797,8.28923 -36.36524,10.75205 -53.33698,7.03687 z"
     id="path831"
     inkscape:connector-curvature="0"
     transform="scale(0.75000001)" />
  <path
     style="fill:#67e3c0;fill-opacity:1;stroke:#67e3c0;stroke-width:6.05900003;stroke-miterlimit:4;stroke-dasharray:none;stroke-dashoffset:0;stroke-opacity:1"
     d="m 486.64305,620.00425 c -23.51284,-1.42544 -42.4943,-11.1158 -55.46282,-28.31472 -7.60645,-10.08771 -11.2432,-19.51515 -12.261,-31.78385 -0.45471,-5.48126 -0.84628,-43.87424 -0.87012,-85.31774 -0.0343,-59.60646 -0.30319,-75.34754 -1.28679,-75.33136 -0.68389,0.0113 -8.6294,0.6799 -17.6567,1.48587 -26.06963,2.32754 -93.19094,3.61148 -130.80876,2.50217 -63.91007,-1.88463 -100.94974,-6.11579 -126.33622,-14.43178 -14.0034,-4.58718 -19.61967,-7.70707 -27.02603,-15.01326 -5.0418,-4.97362 -6.44344,-7.10025 -7.83529,-11.88804 -4.82766,-16.60657 4.40771,-35.65987 21.06251,-43.45359 5.8113,-2.71943 7.44796,-3.03104 15.61818,-2.97359 5.01964,0.0353 20.31748,1.4262 33.9952,3.09089 94.18943,11.46365 135.48433,12.62832 212.37772,5.98986 29.40503,-2.53863 47.25055,-4.63572 51.72666,-6.07858 1.91488,-0.61725 6.29599,-2.89531 9.73578,-5.06236 3.43981,-2.16704 9.48287,-5.12042 13.42904,-6.56306 l 7.17486,-2.62299 h 100.96646 100.96645 l 6.46584,2.24985 c 3.55621,1.23742 9.15164,3.81615 12.43429,5.73051 12.6181,7.35857 13.49032,7.56405 44.0165,10.36963 43.38667,3.98756 68.36031,5.35868 98.23181,5.39318 36.63978,0.0423 63.03961,-1.87092 130.31139,-9.44393 38.73099,-4.36008 46.21099,-4.5034 53.40009,-1.0232 6.6104,3.20005 14.6058,11.60048 18.1344,19.05313 2.7285,5.76289 3.0571,7.43913 3.0217,15.41852 -0.046,10.40181 -2.2712,16.2472 -8.5901,22.56611 -11.4266,11.42654 -43.18586,20.57381 -87.35307,25.15934 -37.11567,3.85342 -152.28167,4.48693 -196.87547,1.083 -11.71679,-0.89437 -21.65746,-1.27192 -22.09038,-0.83899 -0.43293,0.43292 -0.92604,38.60907 -1.09581,84.83587 -0.30726,83.66578 -0.31858,84.07491 -2.48459,89.79368 -8.06086,21.28246 -24.19926,37.01902 -44.04499,42.94827 -3.52533,1.05325 -12.19279,1.95864 -24.37122,2.54579 -22.26056,1.07321 -148.61921,1.01662 -166.61952,-0.0746 z"
     id="path833"
     inkscape:connector-curvature="0"
     transform="scale(0.75000001)" />
  <path
     style="fill:#55ddff;fill-opacity:1;stroke:#55ddff;stroke-width:5.95900003;stroke-miterlimit:4;stroke-dasharray:none;stroke-dashoffset:0;stroke-opacity:1"
     d="m 557.31066,265.92168 c -8.35911,-1.17205 -20.44468,-5.19555 -30.26559,-10.07595 -26.34836,-13.09356 -46.00046,-35.94391 -54.82856,-63.75156 -6.88554,-21.68878 -4.98425,-53.16151 4.4713,-74.01529 10.79646,-23.811076 36.67859,-47.910078 60.25507,-56.103845 40.19569,-13.969601 80.9074,-4.813644 110.79723,24.918005 27.75299,27.60612 38.04067,66.15816 27.42753,102.78189 -5.53945,19.11546 -14.33402,33.43581 -29.20486,47.55475 -14.82888,14.0791 -31.98419,23.41557 -50.15408,27.29548 -8.75215,1.8689 -29.7076,2.62905 -38.49804,1.39652 z"
     id="path835"
     inkscape:connector-curvature="0"
     transform="scale(0.75000001)" />
  <path
     style="fill:#55ddff;fill-opacity:1;stroke:#55ddff;stroke-width:5.95900003;stroke-miterlimit:4;stroke-dasharray:none;stroke-dashoffset:0;stroke-opacity:1"
     d="m 1048.0619,611.70233 c -7.8093,-3.94243 -14.7873,-10.63753 -18.3478,-17.60389 -1.2282,-2.40292 -4.6498,-10.1882 -7.6037,-17.30061 -2.9539,-7.11242 -5.7472,-13.30867 -6.2074,-13.76945 -0.4602,-0.46079 -2.322,2.0012 -4.1373,5.47109 -6.4871,12.39993 -22.41084,25.31823 -36.66349,29.74373 -6.20231,1.92584 -9.07254,1.99338 -82.5637,1.9429 -41.87591,-0.0288 -79.03229,-0.47048 -82.56975,-0.98158 -10.25709,-1.48196 -19.8848,-6.84657 -29.32621,-16.34069 -4.40592,-4.43052 -9.55237,-10.68244 -11.43655,-13.89315 -5.89274,-10.04145 -6.15863,-12.76444 -6.6178,-67.77335 -0.22835,-27.35545 -0.53487,-57.23505 -0.68117,-66.39913 l -0.266,-16.66195 66.17473,-0.0138 c 108.27217,-0.0225 138.6279,-2.58561 185.04654,-15.62442 6.8389,-1.92101 14.1662,-4.37235 16.283,-5.44742 2.2646,-1.1502 4.215,-1.58828 4.7389,-1.06441 0.4896,0.48965 16.7746,39.34676 36.1887,86.34913 l 35.2985,85.45887 -0.9904,10.45351 c -1.2316,12.9979 -3.7122,18.47472 -11.9091,26.29323 -8.4312,8.042 -12.9795,9.82125 -26.3908,10.32396 -10.9296,0.40967 -10.9503,0.40604 -18.0192,-3.1626 z"
     id="path837"
     inkscape:connector-curvature="0"
     transform="scale(0.75000001)" />
  <path
     style="fill:#55ddff;fill-opacity:1;stroke:#55ddff;stroke-width:5.95900003;stroke-miterlimit:4;stroke-dasharray:none;stroke-dashoffset:0;stroke-opacity:1"
     d="m 69.173273,613.66353 c -6.090869,-1.90451 -10.211702,-4.74488 -16.598775,-11.44106 -7.208809,-7.55768 -9.79455,-13.28511 -10.368116,-22.96546 -0.393768,-6.6458 -0.03457,-8.71085 3.192786,-18.35567 2.000058,-5.97709 9.405228,-24.9891 16.455934,-42.24892 14.07371,-34.45184 50.767338,-122.73503 51.187788,-123.15548 0.14515,-0.14516 2.41626,0.68816 5.0469,1.85182 10.655,4.71321 36.48674,10.98101 60.89016,14.77436 31.62307,4.91559 39.06462,5.2571 125.00076,5.73661 l 81.44204,0.45444 -0.51947,63.8233 c -0.32566,40.01301 -0.93374,66.23549 -1.62995,70.28914 -2.89605,16.86208 -15.8533,33.73203 -31.97316,41.62809 -13.45793,6.59215 -13.97073,6.62675 -96.92972,6.53995 -82.20997,-0.0861 -79.5266,0.11917 -93.38218,-7.14083 -9.62237,-5.04189 -21.33229,-16.29885 -25.65885,-24.6663 -1.82182,-3.52337 -3.57521,-6.40777 -3.89641,-6.40979 -0.3212,-0.002 -3.17812,6.15129 -6.34871,13.67404 -9.82618,23.31426 -14.73806,29.84167 -26.860502,35.69502 -6.35528,3.06867 -7.68604,3.3431 -15.915895,3.28211 -4.939416,-0.0366 -10.849998,-0.65102 -13.13463,-1.36537 z"
     id="path839"
     inkscape:connector-curvature="0"
     transform="scale(0.75000001)" />
</svg>
