<?xml version="1.0" encoding="UTF-8" standalone="no"?>
<!-- Created with Inkscape (http://www.inkscape.org/) -->

<svg
   xmlns:dc="http://purl.org/dc/elements/1.1/"
   xmlns:cc="http://creativecommons.org/ns#"
   xmlns:rdf="http://www.w3.org/1999/02/22-rdf-syntax-ns#"
   xmlns:svg="http://www.w3.org/2000/svg"
   xmlns="http://www.w3.org/2000/svg"
   xmlns:sodipodi="http://sodipodi.sourceforge.net/DTD/sodipodi-0.dtd"
   xmlns:inkscape="http://www.inkscape.org/namespaces/inkscape"
   width="157.61852mm"
   height="51.618759mm"
   viewBox="0 0 157.61852 51.618759"
   version="1.1"
   id="svg8"
   inkscape:version="0.92.4 (5da689c313, 2019-01-14)"
   sodipodi:docname="logoViade.svg">
  <defs
     id="defs2" />
  <sodipodi:namedview
     id="base"
     pagecolor="#ffffff"
     bordercolor="#666666"
     borderopacity="1.0"
     inkscape:pageopacity="0.0"
     inkscape:pageshadow="2"
     inkscape:zoom="0.70710678"
     inkscape:cx="170.83685"
     inkscape:cy="-120.25035"
     inkscape:document-units="mm"
     inkscape:current-layer="layer2"
     showgrid="false"
     inkscape:window-width="1920"
     inkscape:window-height="1017"
     inkscape:window-x="-8"
     inkscape:window-y="-8"
     inkscape:window-maximized="1"
     fit-margin-top="0"
     fit-margin-left="0"
     fit-margin-right="0"
     fit-margin-bottom="0" />
  <metadata
     id="metadata5">
    <rdf:RDF>
      <cc:Work
         rdf:about="">
        <dc:format>image/svg+xml</dc:format>
        <dc:type
           rdf:resource="http://purl.org/dc/dcmitype/StillImage" />
        <dc:title></dc:title>
      </cc:Work>
    </rdf:RDF>
  </metadata>
  <g
     inkscape:groupmode="layer"
     id="layer2"
     inkscape:label="texto"
     style="display:inline"
     transform="translate(-17.300706,-60.65847)">
    <text
       xml:space="preserve"
       style="font-style:normal;font-weight:normal;font-size:32.42778397px;line-height:1.25;font-family:sans-serif;letter-spacing:0px;word-spacing:0px;display:inline;fill:#67e3c0;fill-opacity:1;stroke:none;stroke-width:0.76601064;stroke-miterlimit:4;stroke-dasharray:none;stroke-opacity:1"
       x="85.985336"
       y="100.04558"
       id="text923"><tspan
         sodipodi:role="line"
         id="tspan921"
         x="85.985336"
         y="100.04558"
         style="fill:#67e3c0;fill-opacity:1;stroke:none;stroke-width:0.76601064;stroke-miterlimit:4;stroke-dasharray:none;stroke-opacity:1">viade</tspan></text>
  </g>
  <g
     inkscape:label="Capa 1"
     inkscape:groupmode="layer"
     id="layer1"
     style="display:inline"
     transform="translate(-17.300706,-60.65847)">
    <path
       style="fill:none;stroke:#000000;stroke-width:0.1471681;stroke-linecap:butt;stroke-linejoin:miter;stroke-miterlimit:4;stroke-dasharray:none;stroke-opacity:1"
       d="m 51.416872,61.077029 1.285767,0.05934 1.483569,0.573647 1.206646,0.830795 1.246197,1.048394 1.443995,1.602258 0.731908,1.325323 0.178029,1.661595 -0.01976,1.523134 -0.0048,1.288057 -0.195822,2.573646 -0.419613,2.014164 -0.923164,2.349855 -6.546015,11.077891 -5.87463,-9.315501 -2.293913,-5.734764 -0.755316,-3.88845 0.139868,-2.12606 0.643413,-1.538593 0.783298,-1.566573 1.958205,-2.126061 2.042148,-1.258849 1.370739,-0.363665 z"
       id="path828"
       inkscape:connector-curvature="0" />
    <path
       style="display:none;fill:none;stroke:#000000;stroke-width:0.26458332px;stroke-linecap:butt;stroke-linejoin:miter;stroke-opacity:1"
       d="m 104.36875,75.801055 -0.56795,0.233863 -0.51783,0.451016 -0.26727,0.584653 -0.0835,1.00226 0.23386,0.65147 0.3842,0.400905 0.53453,0.250563 0.56795,0.100227 h 0.60136 l 0.71829,-0.217157 0.31738,-0.35079 0.21716,-0.53454 0.0501,-0.534538 -0.0334,-0.668176 -0.28397,-0.551241 -0.53454,-0.434314 -0.71829,-0.300677 z"
       inkscape:connector-curvature="0"
       id="path830" />
    <path
       style="fill:none;stroke:#000000;stroke-width:0.1471681;stroke-linecap:butt;stroke-linejoin:miter;stroke-miterlimit:4;stroke-dasharray:none;stroke-opacity:1"
       d="m 36.897672,75.08193 1.10773,1.740727 -7.635438,5.578223 -6.329897,21.04691 9.969594,-6.883758 2.215461,-0.07913 14.558773,10.286088 14.321395,-9.930029 2.175895,-0.07913 10.088285,7.121129 0.316504,-1.89897 -0.712128,-1.18685 -5.696903,-18.119341 -7.754129,-5.696903 1.186848,-1.898978 8.861863,5.776038 10.206973,27.772434 -0.07905,1.81984 -0.316496,0.39561 -0.237367,0.47476 -0.71211,0.31647 -1.265973,0.15826 -1.661609,-0.94949 -13.371918,-9.65308 -14.321396,10.0487 H 49.83448 l -14.55876,-10.0487 -14.479645,10.12784 -1.028607,0.079 -0.63299,-0.23737 -0.791241,-0.39561 -0.395614,-0.55387 -0.158258,-0.71211 0.07913,-1.02862 0.39562,-0.94947 9.099233,-25.873466 z"
       id="path832"
       inkscape:connector-curvature="0" />
    <path
       style="fill:#67e3c0;fill-opacity:1;stroke:none;stroke-width:0.1471681;stroke-linecap:butt;stroke-linejoin:miter;stroke-miterlimit:4;stroke-dasharray:none;stroke-opacity:1"
       d="m 37.174607,81.332708 -2.057215,11.947684 -5.380418,3.560574 2.848456,-12.42243 z"
       id="path834"
       inkscape:connector-curvature="0" />
    <path
       style="fill:#67e3c0;fill-opacity:1;stroke:none;stroke-width:0.1471681;stroke-linecap:butt;stroke-linejoin:miter;stroke-miterlimit:4;stroke-dasharray:none;stroke-opacity:1"
       d="m 39.4692,79.829356 -2.452844,13.134544 12.501562,8.70361 0.237367,-4.984794 z"
       id="path836"
       inkscape:connector-curvature="0" />
    <path
       style="fill:#67e3c0;fill-opacity:1;stroke:none;stroke-width:0.1471681;stroke-linecap:butt;stroke-linejoin:miter;stroke-miterlimit:4;stroke-dasharray:none;stroke-opacity:1"
       d="m 61.78208,79.512864 -9.732212,16.932481 0.07905,5.063915 12.185051,-8.307993 z"
       id="path838"
       inkscape:connector-curvature="0" />
    <path
       style="fill:#67e3c0;fill-opacity:1;stroke:none;stroke-width:0.1471681;stroke-linecap:butt;stroke-linejoin:miter;stroke-miterlimit:4;stroke-dasharray:none;stroke-opacity:1"
       d="M 68.665849,84.26029 72.147306,96.840966 66.292138,92.884782 64.155791,81.807454 Z"
       id="path840"
       inkscape:connector-curvature="0" />
    <ellipse
       style="fill:#aa0000;fill-opacity:1;stroke:#140000;stroke-width:0.1471681;stroke-miterlimit:4;stroke-dasharray:none;stroke-opacity:1"
       id="path848"
       ry="3.190269"
       rx="3.3024733"
       cy="69.558167"
       cx="50.663963" />
    <path
       style="fill:#ff0000;fill-opacity:1;stroke:#ff0000;stroke-width:1.14055312;stroke-miterlimit:4;stroke-dasharray:none;stroke-opacity:1"
       d="M 47.850617,84.19562 45.240394,79.543607 43.89352,76.930524 c -1.29358,-2.509686 -1.135877,-2.857651 -1.509414,-4.680043 -0.365784,-1.784571 -0.268193,-2.196246 -0.21767,-3.251189 0.06032,-1.259513 0.245013,-1.616737 1.117157,-3.339745 0.367678,-0.726387 0.498849,-0.984955 1.22525,-1.780378 0.793004,-0.868357 1.112397,-1.135135 2.010759,-1.679515 1.48705,-0.901108 2.084295,-1.032328 4.349783,-0.955684 1.521416,0.05147 1.749744,0.08285 2.393049,0.328852 1.698482,0.649509 4.158257,2.859474 5.031526,4.520531 l 0.404315,1.014801 0.465497,1.611858 c 0.595228,2.061065 -0.08987,4.432431 -0.384617,5.877633 -0.407328,1.997184 -1.286838,2.844876 -4.75194,8.710559 -1.75236,2.966376 -3.219648,5.393413 -3.260642,5.393413 -0.04099,0 -1.353174,-2.027701 -2.915956,-4.505997 z m 4.044029,-11.555729 c 1.219409,-0.45624 2.029687,-1.667978 2.029687,-3.035321 0,-0.99552 -0.222525,-1.532336 -0.928101,-2.238943 -0.816459,-0.817656 -1.45256,-1.061189 -2.618253,-1.002408 -1.347526,0.06795 -2.244232,0.621604 -2.861846,1.766992 -0.307779,0.570789 -0.335886,0.693559 -0.334356,1.460506 0.002,0.974584 0.194951,1.503659 0.788002,2.160097 0.997808,1.104454 2.462461,1.436233 3.924867,0.889077 z"
       id="path928"
       inkscape:connector-curvature="0"
       sodipodi:nodetypes="scsscsssssccssssssscsscss" />
    <path
       style="fill:#67e3c0;fill-opacity:1;stroke:none;stroke-width:0.22332759;stroke-miterlimit:4;stroke-dasharray:none;stroke-dashoffset:0;stroke-opacity:1"
       d="m 43.20851,97.132278 c -5.342924,-3.731552 -6.032131,-4.241682 -6.006711,-4.445987 0.01579,-0.126933 0.545813,-2.990533 1.177822,-6.363557 l 1.149109,-6.132771 0.305882,0.486728 c 0.168234,0.2677 2.441766,3.986226 5.052293,8.263392 l 4.746412,7.776663 -0.114141,2.298603 c -0.06278,1.264231 -0.117534,2.309551 -0.121682,2.322941 -0.02623,0.0846 -0.742791,-0.40234 -6.188984,-4.206012 z"
       id="path940"
       inkscape:connector-curvature="0" />
    <path
       style="fill:#67e3c0;fill-opacity:1;stroke:none;stroke-width:0.775208;stroke-miterlimit:4;stroke-dasharray:none;stroke-dashoffset:0;stroke-opacity:1"
       d="m 48.268579,100.74022 c -1.367374,-0.892433 -7.604159,-5.260114 -9.242698,-6.47275 -1.779002,-1.316587 -1.862674,-1.398542 -1.802315,-1.765296 0.02692,-0.163544 0.552962,-3.021033 1.16899,-6.349976 0.616029,-3.328942 1.120698,-6.08869 1.121487,-6.132771 7.73e-4,-0.04408 0.05555,0.01523 0.121682,0.131775 0.06614,0.116557 2.370093,3.883829 5.119904,8.37172 l 4.999656,8.159794 -0.06692,1.623279 c -0.0368,0.892803 -0.08207,1.703205 -0.100593,1.800895 -0.01851,0.0977 -0.03703,0.42949 -0.04113,0.73735 -0.0052,0.39116 -0.04564,0.55974 -0.134262,0.55974 -0.06975,0 -0.584459,-0.29869 -1.143808,-0.66376 z"
       id="path944"
       inkscape:connector-curvature="0" />
    <path
       style="fill:#55ddff;fill-opacity:1;stroke:#55ddff;stroke-width:1.28772092;stroke-miterlimit:4;stroke-dasharray:none;stroke-dashoffset:0;stroke-opacity:1"
       d="m 80.355726,111.18356 c -0.473593,-0.27166 -3.847899,-2.65135 -7.498457,-5.2882 -3.650559,-2.63685 -6.674349,-4.79427 -6.719532,-4.79427 -0.04518,0 -3.297495,2.25598 -7.227358,5.0133 l -7.145207,5.01329 H 50.827371 49.88957 l -7.273925,-5.02123 c -4.440101,-3.06503 -7.329358,-4.99996 -7.416213,-4.96663 -0.07826,0.03 -3.349811,2.29938 -7.27012,5.04301 -6.793854,4.75467 -7.151984,4.99107 -7.643236,5.04524 -0.427065,0.0471 -0.627277,0.01 -1.168146,-0.21663 -0.850029,-0.35614 -1.098833,-0.70096 -1.163391,-1.61237 -0.04107,-0.5798 -0.007,-0.75854 0.292461,-1.53246 0.186423,-0.48186 2.322151,-6.52702 4.746062,-13.433692 2.42391,-6.906668 4.477498,-12.630159 4.563529,-12.718869 0.1716,-0.176942 9.204427,-6.409535 9.289266,-6.409535 0.02886,0 0.260774,0.334191 0.515352,0.742646 0.44762,0.718177 0.456668,0.747308 0.274615,0.884161 -0.103539,0.07783 -1.772552,1.300803 -3.708917,2.717708 -1.936364,1.416905 -3.562153,2.628885 -3.612863,2.693288 -0.05071,0.0644 -1.506462,4.826188 -3.235004,10.581745 -1.728542,5.755557 -3.162875,10.519408 -3.187405,10.586328 -0.02453,0.0669 -0.0071,0.12026 0.03882,0.11852 0.04588,-0.002 2.339408,-1.56592 5.096721,-3.47594 l 5.013297,-3.47277 1.070801,-0.03815 1.070801,-0.03815 7.300918,5.1591 c 4.021165,2.84151 7.344647,5.1263 7.398263,5.08609 0.05354,-0.0402 3.301541,-2.29171 7.217779,-5.00345 l 7.120435,-4.930415 h 1.036797 1.036797 l 4.977285,3.514095 c 2.737507,1.93275 5.028493,3.53374 5.091082,3.55776 0.07651,0.0294 0.169285,-0.29447 0.28314,-0.98827 l 0.169344,-1.03194 -0.361361,-0.60325 c -0.287769,-0.4804 -0.943694,-2.455218 -3.220808,-9.697043 -1.572696,-5.001588 -2.870353,-9.100554 -2.883684,-9.10881 -0.01333,-0.0083 -1.741449,-1.273756 -3.840263,-2.812217 l -3.816026,-2.797204 0.506277,-0.821065 c 0.278452,-0.451586 0.535403,-0.82145 0.571003,-0.821919 0.0356,-4.87e-4 2.008983,1.267682 4.385296,2.818113 l 4.320568,2.818964 5.090127,13.851463 5.090128,13.851458 -0.03567,0.87611 c -0.0326,0.8008 -0.06282,0.91527 -0.351593,1.33172 -0.342006,0.49321 -0.61918,0.62997 -1.526273,0.75306 -0.507614,0.0689 -0.553099,0.055 -1.385917,-0.4227 z"
       id="path2424"
       inkscape:connector-curvature="0" />
    <path
       style="fill:none;fill-opacity:1;stroke:none;stroke-width:3.56882668;stroke-miterlimit:4;stroke-dasharray:none;stroke-dashoffset:0;stroke-opacity:1"
       d="m 80.797214,110.60677 c -0.759909,-0.4576 -3.251435,-2.21492 -8.840641,-6.2355 -2.650233,-1.90643 -4.928119,-3.49452 -5.061969,-3.52907 -0.133851,-0.0346 -0.347835,-0.14377 -0.47552,-0.24268 -0.127685,-0.0989 -0.308187,-0.17985 -0.401116,-0.17985 -0.177632,0 -2.398134,1.52262 -9.942104,6.81741 l -4.572423,3.20918 h -0.678718 -0.678718 l -3.915578,-2.70708 c -4.736001,-3.2743 -9.135766,-6.27155 -10.010196,-6.81925 -0.855558,-0.53588 -1.166819,-0.53526 -1.96607,0.004 -0.331687,0.22376 -2.968566,2.05554 -5.859729,4.07062 -7.643809,5.32757 -7.980896,5.55042 -8.392177,5.54818 -0.09583,-4.9e-4 -0.402694,-0.10732 -0.681926,-0.23733 -0.551228,-0.25664 -0.655052,-0.44384 -0.650677,-1.17323 0.0015,-0.24582 0.419603,-1.5558 1.134107,-3.55311 0.622474,-1.74006 2.366671,-6.668176 3.875993,-10.951381 1.509321,-4.283205 3.12705,-8.838796 3.594952,-10.123536 l 0.850731,-2.335892 1.399991,-0.979076 c 6.438122,-4.502467 7.277859,-5.032974 7.287907,-4.604155 7.79e-4,0.03499 -1.373587,1.074689 -3.054237,2.310443 -4.467869,3.28515 -3.969153,2.809881 -4.4268,4.218677 -0.343008,1.055897 -2.025391,6.601962 -5.162374,17.01804 -0.540913,1.79605 -0.983478,3.35619 -0.983478,3.46697 0,0.11079 0.09079,0.31685 0.201757,0.45792 0.456818,0.58075 0.293425,0.6785 9.172455,-5.48749 l 1.654814,-1.149177 0.852466,-0.06747 0.852466,-0.06747 4.122006,2.913597 c 4.970876,3.5136 7.950461,5.59484 9.352368,6.5326 1.632579,1.09206 0.679318,1.53996 9.01354,-4.23511 l 7.071131,-4.899831 0.780587,7.79e-4 0.780588,7.79e-4 3.553113,2.512083 c 5.208883,3.68273 6.547045,4.58929 6.776725,4.59101 0.422537,0.003 0.697219,-0.34828 0.856469,-1.09582 0.358623,-1.68344 0.36002,-1.73069 0.06543,-2.21238 -0.48024,-0.78526 -0.81429,-1.777345 -3.867751,-11.48678 -0.833455,-2.650233 -1.585402,-4.928119 -1.670991,-5.061969 -0.08559,-0.13385 -0.354695,-0.841551 -0.598011,-1.572668 L 71.713209,81.942408 68.354787,79.489414 C 66.507655,78.140267 64.91971,76.963118 64.826022,76.873529 64.669546,76.7239 64.668194,76.692771 64.809419,76.491145 l 0.15374,-0.219495 0.357312,0.21866 c 0.784501,0.480081 7.373941,4.780991 7.483812,4.884665 0.06469,0.06104 2.379203,6.265656 5.143364,13.788035 l 5.025745,13.67705 -0.06581,0.7105 c -0.07799,0.84205 -0.288994,1.15235 -0.875745,1.28786 -0.581866,0.13438 -0.647084,0.12214 -1.234625,-0.23165 z"
       id="path2430"
       inkscape:connector-curvature="0" />
  </g>
</svg>
